<?xml version="1.0" encoding="utf-8"?>
<svg viewBox="0 0 300 90" fill="none" xmlns="http://www.w3.org/2000/svg">
  <path d="M66.093 54.7937L62.6037 51.3255L66.093 47.8615C68.8543 45.1203 68.8543 40.6556 66.093 37.9144L53.8286 25.7392V19.9831C53.8286 18.0116 52.3725 16.331 50.4426 16.0787C49.3269 15.9333 48.2026 16.2711 47.3582 17.0067C46.9317 17.3787 46.5957 17.832 46.3717 18.3324L38.945 10.9896C36.2612 8.33394 31.9146 8.33822 29.2308 10.9939L2.07422 37.9101C-0.6871 40.6513 -0.6871 45.116 2.07422 47.8572L5.57219 51.3297L2.07422 54.7937C-0.691408 57.5392 -0.691408 61.9953 2.07422 64.7408L11.9607 74.5553C13.2186 75.8041 14.8728 76.6123 16.6476 76.715C18.7025 76.839 20.6539 76.0991 22.0971 74.6665L31.9232 64.9375C33.1337 63.7401 35.0938 63.7401 36.3 64.9418L46.0788 74.6665C47.5219 76.0991 49.4734 76.8347 51.5282 76.715C53.303 76.608 54.9572 75.7998 56.2151 74.5553L66.1016 64.7408C68.8543 61.9953 68.8543 57.5349 66.093 54.7937ZM5.09402 44.8594C3.99552 43.7689 3.99552 41.9984 5.09402 40.9079L31.8931 14.2996C33.1036 13.0979 35.0593 13.0979 36.2698 14.2996L63.0689 40.9079C64.1674 41.9984 64.1674 43.7689 63.0689 44.8594L59.5796 48.3234L38.9881 27.8604C36.3043 25.1961 31.9534 25.1918 29.2653 27.8518L8.59198 48.3362L5.09402 44.8594ZM56.5641 51.3169L53.1436 54.7124C52.6396 55.2128 51.9762 55.5506 51.2654 55.5934C50.4469 55.6447 49.6672 55.3496 49.0943 54.7809L38.945 44.7183C36.2612 42.0583 31.9103 42.0583 29.2265 44.7183L19.0773 54.7809C18.5474 55.3069 17.8409 55.5977 17.087 55.5977C16.3332 55.5977 15.6267 55.3069 15.0968 54.7809L11.6118 51.3212L31.9319 31.1618C33.1424 29.9601 35.1024 29.9644 36.3086 31.1661L56.5641 51.3169ZM63.0732 61.743L53.1436 71.6003C52.6396 72.1006 51.9762 72.4385 51.2654 72.4812C50.4469 72.5326 49.6672 72.2375 49.0943 71.6687L38.9407 61.6104C36.2569 58.9504 31.9103 58.9504 29.2265 61.6104L19.073 71.6687C18.5 72.2375 17.7203 72.5326 16.9018 72.4812C16.191 72.4385 15.5276 72.1006 15.0236 71.6003L5.09402 61.743C3.99552 60.6525 3.99552 58.882 5.09402 57.7915L8.58767 54.3233L11.9607 57.6718C13.2186 58.9205 14.8728 59.7288 16.6476 59.8314C18.7025 59.9554 20.6539 59.2156 22.0971 57.783L31.9189 48.0454C33.1294 46.848 35.0895 46.848 36.2957 48.0497L46.0745 57.783C47.5176 59.2156 49.4691 59.9511 51.5239 59.8314C53.2987 59.7245 54.9529 58.9162 56.2108 57.6718L59.5882 54.319L63.0775 57.7915C64.1717 58.882 64.1717 60.6525 63.0732 61.743Z" fill="#E03C31"/>
  <path d="M 263.89 72.948 C 265.35 72.948 266.534 71.776 266.534 70.329 C 266.534 68.884 265.35 67.712 263.89 67.712 C 262.43 67.712 261.246 68.884 261.246 70.329 C 261.246 71.776 262.43 72.948 263.89 72.948 Z" style="fill: rgb(0, 0, 0);"/>
  <path d="M 273.821 67.718 C 273.674 67.718 273.569 67.619 273.536 67.501 C 273.157 66.059 272.469 64.12 272.057 62.962 C 271.27 60.751 269.725 56.397 269.725 56.397 C 269.686 56.286 269.58 56.214 269.454 56.214 L 265.597 56.214 C 265.439 56.214 265.312 56.338 265.312 56.495 C 265.312 56.535 265.319 56.568 265.333 56.602 L 271.654 72.356 C 271.701 72.46 271.8 72.526 271.92 72.526 L 275.716 72.526 C 275.836 72.526 275.934 72.455 275.98 72.356 L 282.302 56.602 C 282.317 56.568 282.322 56.535 282.322 56.495 C 282.322 56.338 282.196 56.214 282.037 56.214 L 278.182 56.214 C 278.055 56.214 277.949 56.292 277.909 56.397 C 277.909 56.397 276.365 60.745 275.577 62.962 C 275.167 64.114 274.477 66.054 274.099 67.501 C 274.072 67.614 273.967 67.718 273.821 67.718 Z" style="fill: rgb(0, 0, 0); stroke-linejoin: round;"/>
  <path d="M 293.865 55.943 C 297.093 55.943 299.518 58.286 299.518 62.468 L 299.518 72.243 C 299.518 72.402 299.392 72.526 299.232 72.526 L 295.548 72.526 C 295.39 72.526 295.263 72.402 295.263 72.243 L 295.263 63.495 C 295.263 60.942 294.117 59.714 292.016 59.714 C 290.009 59.714 288.624 61.035 288.624 63.495 L 288.624 72.251 C 288.624 72.408 288.499 72.533 288.338 72.533 L 284.654 72.533 C 284.496 72.533 284.369 72.408 284.369 72.251 L 284.369 56.495 C 284.369 56.338 284.496 56.212 284.654 56.212 L 288.041 56.212 C 288.199 56.212 288.326 56.338 288.326 56.495 C 288.326 56.495 288.326 58.174 288.326 59.403 C 288.326 59.561 288.452 59.685 288.611 59.685 C 288.769 59.685 288.863 59.587 288.909 59.436 C 289.299 58.081 290.546 55.943 293.865 55.943 Z" style="fill: rgb(0, 0, 0);"/>
  <path d="M98.1132 34.9293C99.9095 33.5053 101.068 31.3585 101.068 28.9209C101.068 24.6358 97.5704 21.1633 93.1204 21.1633H82.8505C82.0837 21.1633 81.4634 21.7791 81.4634 22.5404V48.1223C81.4634 48.8835 82.0837 49.4993 82.8505 49.4993H94.3567C98.8024 49.4993 102.305 46.0268 102.305 41.7418C102.3 38.7782 100.612 36.2379 98.1132 34.9293ZM86.5897 26.5004C86.5897 26.1198 86.8999 25.8119 87.2833 25.8119H92.0951C94.2706 25.8119 95.9377 27.4711 95.9377 29.5153C95.9377 31.5595 94.2663 33.2187 92.0951 33.2187H87.2833C86.8999 33.2187 86.5897 32.9108 86.5897 32.5302V26.5004ZM93.3315 44.8508H87.2833C86.8999 44.8508 86.5897 44.5429 86.5897 44.1623V38.1324C86.5897 37.7518 86.8999 37.4439 87.2833 37.4439H93.3315C95.5069 37.4439 97.1741 39.1032 97.1741 41.1474C97.1741 43.1915 95.5026 44.8508 93.3315 44.8508Z" fill="#E03C31"/>
  <path d="M135.945 34.5061C135.945 34.3179 136.1 34.164 136.289 34.164H140.399C140.589 34.164 140.744 34.01 140.744 33.8218V30.1483C140.744 29.9602 140.589 29.8062 140.399 29.8062H135.815C135.626 29.8062 135.471 29.6523 135.471 29.4641V24.8797C135.471 24.6916 135.316 24.5376 135.126 24.5376H131.163C130.973 24.5376 130.818 24.6916 130.818 24.8797V43.5209C130.818 48.3277 133.175 49.9912 136.246 49.9912C138.198 49.9912 139.361 49.4011 139.843 49.1702C139.994 49.0975 140.067 48.9777 140.067 48.8109L140.059 45.8259C140.059 45.5907 139.839 45.4026 139.555 45.5095C138.93 45.7404 138.404 45.8901 137.767 45.8901C136.849 45.8901 135.945 45.4624 135.945 43.7818V34.5061Z" fill="#E03C31"/>
  <path d="M126.049 29.7976H121.978C121.789 29.7976 121.629 29.9516 121.629 30.144V32.9622C121.629 33.1504 121.474 33.3086 121.281 33.3086C121.173 33.3086 121.039 33.2616 120.957 33.0991C120.544 32.2694 118.791 29.3956 114.487 29.3956C109.374 29.3956 105.182 33.8261 105.182 39.6549C105.182 45.4838 109.374 49.9142 114.487 49.9142C118.791 49.9142 120.548 47.0404 120.957 46.2108C121.039 46.0483 121.173 46.0055 121.281 46.0055C121.47 46.0055 121.629 46.1595 121.629 46.3476V49.1658C121.629 49.354 121.785 49.5079 121.978 49.5079H126.049C126.239 49.5079 126.398 49.354 126.398 49.1615V30.1397C126.394 29.9516 126.239 29.7976 126.049 29.7976ZM115.745 45.1716C112.747 45.1716 110.317 42.6998 110.317 39.6506C110.317 36.6015 112.747 34.1297 115.745 34.1297C118.743 34.1297 121.173 36.6015 121.173 39.6506C121.173 42.6998 118.743 45.1716 115.745 45.1716Z" fill="#E03C31"/>
  <path d="M158.703 33.1118C157.867 31.4526 155.812 29.3827 152.219 29.3827C147.106 29.3827 142.915 33.8132 142.915 39.642C142.915 45.4666 147.106 49.9013 152.219 49.9013C156.523 49.9013 158.281 47.0275 158.69 46.1979C158.772 46.0354 158.905 45.9926 159.013 45.9926C159.202 45.9926 159.358 46.1466 159.358 46.3347V49.1529C159.358 49.3411 159.513 49.495 159.702 49.495H163.773C163.963 49.495 164.118 49.3411 164.118 49.1529V21.5097C164.118 21.3216 163.963 21.1676 163.773 21.1676H159.336C159.146 21.1676 158.991 21.3216 158.991 21.5097V22.8312C158.991 29.5581 159.366 32.6243 159.362 32.9707C159.358 33.1546 159.215 33.3128 159.009 33.3128C158.961 33.3085 158.785 33.2786 158.703 33.1118ZM153.473 34.1211C156.471 34.1211 158.901 36.5929 158.901 39.642C158.901 42.6912 156.471 45.163 153.473 45.163C150.475 45.163 148.045 42.6912 148.045 39.642C148.049 36.5929 150.479 34.1211 153.473 34.1211Z" fill="#E03C31"/>
  <path d="M202.664 29.4684C206.55 29.4684 209.466 32.2951 209.466 37.3457V49.1445C209.466 49.3327 209.311 49.4866 209.122 49.4866H204.689C204.5 49.4866 204.344 49.3327 204.344 49.1445V38.5773C204.344 35.494 202.966 34.01 200.433 34.01C198.016 34.01 196.349 35.6051 196.349 38.5773V49.1445C196.349 49.3327 196.194 49.4866 196.004 49.4866H191.572C191.382 49.4866 191.227 49.3327 191.227 49.1445V30.1398C191.227 29.9516 191.382 29.7977 191.572 29.7977L195.643 29.7934C195.832 29.7934 195.987 29.9474 195.987 30.1355C195.987 30.1355 195.987 32.1583 195.987 33.6422C195.987 33.8304 196.142 33.9844 196.332 33.9844C196.521 33.9844 196.638 33.8646 196.689 33.685C197.168 32.0471 198.671 29.4684 202.664 29.4684Z" fill="#E03C31"/>
  <path d="M229.067 47.5065C229.067 51.8344 226.426 54.1052 222.506 54.1052C219.607 54.1052 217.897 52.942 217.22 52.54C217.048 52.4373 216.837 52.5015 216.742 52.6512L214.713 55.8243C214.614 55.9825 214.662 56.1835 214.812 56.2905C216.032 57.15 218.853 58.5741 222.786 58.5741C228.494 58.5741 233.84 55.2898 233.84 47.3184V30.1397C233.84 29.9516 233.685 29.7976 233.491 29.7976H229.42C229.231 29.7976 229.071 29.9516 229.071 30.144V32.9622C229.071 33.1504 228.916 33.3086 228.722 33.3086C228.615 33.3086 228.481 33.2616 228.399 33.0991C227.986 32.2694 226.232 29.3956 221.929 29.3956C216.816 29.3956 212.624 33.8261 212.624 39.6549C212.624 45.4838 216.816 49.4524 221.929 49.4524C225.875 49.4524 227.99 47.0361 228.399 46.2108C228.481 46.0483 228.615 46.0055 228.722 46.0055C228.912 46.0055 229.071 46.1595 229.071 46.3476V47.5065H229.067ZM223.183 45.1716C220.184 45.1716 217.755 42.6998 217.755 39.6506C217.755 36.6015 220.184 34.1297 223.183 34.1297C226.181 34.1297 228.61 36.6015 228.61 39.6506C228.61 42.6998 226.176 45.1716 223.183 45.1716Z" fill="#E03C31"/>
  <path d="M293.194 29.4684C297.079 29.4684 300 32.2951 300 37.3457V49.1445C300 49.3327 299.845 49.4866 299.655 49.4866H295.223C295.033 49.4866 294.878 49.3327 294.878 49.1445V38.5773C294.878 35.494 293.5 34.01 290.967 34.01C288.55 34.01 286.883 35.6051 286.883 38.5773V49.1445C286.883 49.3327 286.728 49.4866 286.538 49.4866H282.105C281.916 49.4866 281.761 49.3327 281.761 49.1445V30.1398C281.761 29.9516 281.916 29.7977 282.105 29.7977L286.176 29.7934C286.366 29.7934 286.521 29.9474 286.521 30.1355C286.521 30.1355 286.521 32.1583 286.521 33.6422C286.521 33.8304 286.676 33.9844 286.866 33.9844C287.055 33.9844 287.171 33.8646 287.223 33.685C287.697 32.0471 289.2 29.4684 293.194 29.4684Z" fill="#E03C31"/>
  <path d="M276.979 29.7976H272.908C272.719 29.7976 272.559 29.9516 272.559 30.144V32.9622C272.559 33.1504 272.404 33.3086 272.21 33.3086C272.103 33.3086 271.969 33.2616 271.887 33.1033C271.474 32.2737 269.72 29.3999 265.417 29.3999C260.303 29.3999 256.112 33.8303 256.112 39.6592C256.112 45.4838 260.303 49.9185 265.417 49.9185C269.72 49.9185 271.478 47.0447 271.887 46.215C271.969 46.0525 272.103 46.0098 272.21 46.0098C272.4 46.0098 272.559 46.1637 272.559 46.3562V49.1744C272.559 49.3625 272.714 49.5165 272.908 49.5165H276.979C277.169 49.5165 277.328 49.3625 277.328 49.1701V30.1397C277.328 29.9516 277.173 29.7976 276.979 29.7976ZM266.675 45.1716C263.676 45.1716 261.247 42.6998 261.247 39.6506C261.247 36.6015 263.676 34.1297 266.675 34.1297C269.673 34.1297 272.103 36.6015 272.103 39.6506C272.103 42.6998 269.673 45.1716 266.675 45.1716Z" fill="#E03C31"/>
  <path d="M246.704 37.6577C244.765 37.2814 242.62 36.9906 242.62 35.0918C242.62 33.7875 243.994 32.9408 245.885 32.9408C247.858 32.9408 249.534 33.98 250.426 34.7797C250.559 34.8994 250.818 34.8481 250.908 34.6984L252.834 31.6022C252.907 31.4611 252.911 31.2772 252.765 31.1532C251.054 29.7078 248.241 28.9423 245.652 28.9423C240.225 28.9423 237.493 32.124 237.493 35.2501C237.493 39.0433 240.5 40.4888 243.766 41.1944C246.139 41.7076 248.582 42.1908 248.582 43.8715C248.582 45.1117 247.41 46.1081 244.937 46.1081C242.654 46.1081 240.505 44.761 239.557 44.0767C239.385 43.9527 239.186 43.9827 239.061 44.1409L237.011 47.344C236.938 47.4723 236.946 47.6519 237.084 47.7759C238.398 48.969 241.491 50.3546 245.101 50.3546C250.365 50.3546 253.725 47.4637 253.725 43.8544C253.717 39.5736 249.986 38.2949 246.704 37.6577Z" fill="#E03C31"/>
  <path d="M177.666 29.3058C171.911 29.3058 167.245 33.9372 167.245 39.6506C167.245 45.364 171.911 49.9954 177.666 49.9954C183.421 49.9954 188.086 45.364 188.086 39.6506C188.086 33.9372 183.421 29.3058 177.666 29.3058ZM177.666 45.1716C174.668 45.1716 172.238 42.6997 172.238 39.6506C172.238 36.6015 174.668 34.1297 177.666 34.1297C180.664 34.1297 183.094 36.6015 183.094 39.6506C183.094 42.6997 180.664 45.1716 177.666 45.1716Z" fill="#E03C31"/>
</svg>